<?xml version="1.0" encoding="utf-8"?>
<!-- Generator: Adobe Illustrator 22.0.1, SVG Export Plug-In . SVG Version: 6.00 Build 0)  -->
<svg version="1.1" id="Layer_1" xmlns="http://www.w3.org/2000/svg" xmlns:xlink="http://www.w3.org/1999/xlink" x="0px" y="0px"
	 viewBox="0 0 1000 781.3" style="enable-background:new 0 0 1000 781.3;" xml:space="preserve">
<style type="text/css">
	.st0{fill:#EFA220;}
</style>
<title>lisa-pms</title>
<g>
	<path class="st0" d="M690.4,430.1c-11.4-22.2-29-40.6-50.5-53.2c-23.8-13.7-31.9-44.1-18.2-67.9c11.3-19.5,34.3-29,56.1-23.1
		c4.2,1.1,8.2,2.8,12,5v-0.1c1.9,1.1,3.9,2,6,2.6c13.3,3.6,26.9-4.2,30.6-17.4c3-10.9-1.8-22.5-11.6-28.1v-0.1
		c-0.4-0.2-0.8-0.4-1.2-0.7h-0.1c-48.3-26.3-108.7-8.5-135,39.8c-25.6,47-9.5,105.7,36.4,133.1l0,0c38.9,22.5,52.1,72.3,29.6,111.2
		c-18.5,31.9-56,47.3-91.6,37.7h-0.1l0,0c-60.5-16.5-96.3-78.8-80-139.4l0,0l44.6-164.7l0,0c3.6-13.3-4.3-27-17.6-30.6
		c-13.3-3.6-27,4.3-30.6,17.6l0,0l0,0l-44.5,164.6c-23.6,87.2,28,177,115.1,200.5l0,0h0.1c69.9,18.9,141.9-22.4,160.8-92.4
		C709.2,492.9,705.5,459.2,690.4,430.1L690.4,430.1z"/>
	<circle class="st0" cx="522.6" cy="149.7" r="24.9"/>
	<path class="st0" d="M948,247.4c-49.8-29.1-113.7-12.4-142.8,37.4c-4.7,8.1-8.4,16.8-10.8,25.8l-76.1,280.9l0,0
		c-3.9,13.2,3.6,27.1,16.8,31c13.2,3.9,27.1-3.6,31-16.8c0.1-0.4,0.2-0.8,0.3-1.2l21-77.4l113.6,0.3l-17.3,64l0,0
		c-3.4,13.4,4.7,26.9,18,30.3c13.1,3.3,26.4-4.4,30.1-17.3l0,0l64.7-239.1h-0.1C1008.8,319.6,988.9,271.2,948,247.4z M914.4,477.6
		l-113.7-0.3l41.7-153.6c7.9-29.2,38-46.5,67.2-38.6c29.2,7.9,46.5,38,38.6,67.2L914.4,477.6z"/>
	<path class="st0" d="M884.8,683.7c-7.2-1.9-14.8-0.5-20.8,3.8l-0.1-0.1c-4.4,3-109.1,74.2-287.2,29.4
		C458.5,687,389.1,622.1,327.9,564.8c-6.7-6.2-13.3-12.4-19.9-18.5c0.5-1.6,0.9-3.1,1.3-4.7l36.1-133.6l0,0l82.4-304.4l0,0
		c10.5-38.7,50.4-61.6,89.2-51.1c7.6,2.1,14.8,5.4,21.4,9.7l-0.2-0.3c2.2,1.5,4.6,2.7,7.2,3.4c13.3,3.6,27-4.2,30.6-17.5
		c2.6-9.5-0.7-19.7-8.4-25.9c-0.5-0.4-1-0.7-1.5-1C510.2-16.8,434.2-2,396.4,54c-7.5,11.2-13.2,23.5-16.7,36.5l0,0l-82.4,304.4l0,0
		l-31.2,115.3c-32.7-25.7-67.7-45.8-110-53.1C92.2,446,18.9,475.3,2.8,552.8c-15.4,73.9,36.1,127,94.8,141.3
		c93.5,22.7,156.7-30.8,190.9-97.9c1.8,1.7,3.6,3.4,5.4,5.1c62.4,58.4,139.9,131,270.6,163.9c46.5,11.7,88.7,16.2,126.2,16.2
		c125.3,0,198.1-50.5,202-53.3l-0.1-0.1c11.2-7.9,14-23.3,6.1-34.5C895.4,688.6,890.4,685.2,884.8,683.7z M109.4,645.6
		c-49.3-12-64.6-50.2-57.8-82.7c6.4-30.8,32.1-58.5,76-58.5c6.8,0,13.5,0.6,20.2,1.8c37.9,6.6,69.8,27.5,102.2,55
		C231,605.3,189.9,665.3,109.4,645.6L109.4,645.6z"/>
</g>
</svg>
