<svg xmlns="http://www.w3.org/2000/svg" width="1000" height="781.35" viewBox="0 0 1000 781.35">
  <defs>
    <style>
      .a {
        fill: #efa220;
      }
    </style>
  </defs>
  <title>lisa-pms</title>
  <g>
    <path class="a" d="M690.6,430.06a130.51,130.51,0,0,0-50.53-53.17,49.7,49.7,0,0,1,37.88-91,50.06,50.06,0,0,1,12,5l0-.08a24.67,24.67,0,0,0,6,2.59,24.88,24.88,0,0,0,19-45.55l0-.09c-.41-.24-.83-.44-1.24-.67l-.08,0A99.55,99.55,0,0,0,615,420h0A81.34,81.34,0,0,1,553,568.9l-.08,0v0a113.75,113.75,0,0,1-80-139.36h0l44.57-164.71h0a24.93,24.93,0,1,0-48.14-13h0L424.8,416.46A163.51,163.51,0,0,0,539.92,617v0l.08,0a131.13,131.13,0,0,0,150.61-187Z" transform="translate(-0.23 0)"/>
    <circle class="a" cx="522.6" cy="149.68" r="24.94"/>
    <path class="a" d="M948.18,247.44a104.4,104.4,0,0,0-153.59,63.24L718.44,591.57h0a24.94,24.94,0,1,0,48.14,13l21-77.44,113.62.28-17.32,64h0a24.94,24.94,0,0,0,48.15,13h0l64.7-239.09-.1,0A104.68,104.68,0,0,0,948.18,247.44ZM914.65,477.6,801,477.32,842.69,323.7a54.8,54.8,0,1,1,105.8,28.62Z" transform="translate(-0.23 0)"/>
    <path class="a" d="M885,683.68a24.78,24.78,0,0,0-20.82,3.78l-.06-.1c-4.37,3-109.07,74.23-287.25,29.4C458.69,687,389.36,622.1,328.18,564.82c-6.66-6.24-13.28-12.44-19.9-18.53q.68-2.35,1.32-4.72l36.15-133.63h0l82.36-304.38h0A72.68,72.68,0,0,1,538.67,62.19l-.22-.28a24.6,24.6,0,0,0,7.21,3.38A24.91,24.91,0,0,0,567.88,21.9c-.49-.35-1-.71-1.48-1A122.28,122.28,0,0,0,380,90.53h0L297.61,394.91h0L266.42,510.18c-32.71-25.69-67.66-45.77-110-53.11C92.41,446,19.1,475.26,3,552.77c-15.38,73.89,36.08,127,94.84,141.31,93.5,22.72,156.73-30.8,190.87-97.91,1.79,1.68,3.6,3.36,5.4,5.06,62.35,58.36,139.93,131,270.62,163.89,46.48,11.7,88.69,16.23,126.21,16.23,125.28,0,198.13-50.51,202-53.28l-.07-.1A24.8,24.8,0,0,0,885,683.68Zm-775.4-38.06c-49.32-12-64.57-50.17-57.8-82.69,6.41-30.81,32.08-58.52,76-58.52a117,117,0,0,1,20.15,1.81c37.91,6.56,69.85,27.54,102.15,55C231.26,605.32,190.15,665.27,109.61,645.62Z" transform="translate(-0.23 0)"/>
  </g>
</svg>
